<svg id="visual" viewBox="0 0 960 100" width="960" height="100" xmlns="http://www.w3.org/2000/svg" xmlns:xlink="http://www.w3.org/1999/xlink" version="1.1"><path d="M0 37L11.5 36.3C23 35.7 46 34.3 68.8 31.7C91.7 29 114.3 25 137.2 23.3C160 21.7 183 22.3 205.8 22.8C228.7 23.3 251.3 23.7 274.2 26.8C297 30 320 36 342.8 37.8C365.7 39.7 388.3 37.3 411.2 32.8C434 28.3 457 21.7 480 19C503 16.3 526 17.7 548.8 17.2C571.7 16.7 594.3 14.3 617.2 16C640 17.7 663 23.3 685.8 26.7C708.7 30 731.3 31 754.2 29C777 27 800 22 822.8 20.3C845.7 18.7 868.3 20.3 891.2 18.7C914 17 937 12 948.5 9.5L960 7L960 0L948.5 0C937 0 914 0 891.2 0C868.3 0 845.7 0 822.8 0C800 0 777 0 754.2 0C731.3 0 708.7 0 685.8 0C663 0 640 0 617.2 0C594.3 0 571.7 0 548.8 0C526 0 503 0 480 0C457 0 434 0 411.2 0C388.3 0 365.7 0 342.8 0C320 0 297 0 274.2 0C251.3 0 228.7 0 205.8 0C183 0 160 0 137.2 0C114.3 0 91.7 0 68.8 0C46 0 23 0 11.5 0L0 0Z" fill="#8cc4e9"></path><path d="M0 54L11.5 52C23 50 46 46 68.8 43.5C91.7 41 114.3 40 137.2 40.3C160 40.7 183 42.3 205.8 41.3C228.7 40.3 251.3 36.7 274.2 37.5C297 38.3 320 43.7 342.8 44.7C365.7 45.7 388.3 42.3 411.2 39C434 35.7 457 32.3 480 33.2C503 34 526 39 548.8 37.7C571.7 36.3 594.3 28.7 617.2 26.8C640 25 663 29 685.8 32.2C708.7 35.3 731.3 37.7 754.2 37.8C777 38 800 36 822.8 36.5C845.7 37 868.3 40 891.2 36.8C914 33.7 937 24.3 948.5 19.7L960 15L960 5L948.5 7.5C937 10 914 15 891.2 16.7C868.3 18.3 845.7 16.7 822.8 18.3C800 20 777 25 754.2 27C731.3 29 708.7 28 685.8 24.7C663 21.3 640 15.7 617.2 14C594.3 12.3 571.7 14.7 548.8 15.2C526 15.7 503 14.3 480 17C457 19.7 434 26.3 411.2 30.8C388.3 35.3 365.7 37.7 342.8 35.8C320 34 297 28 274.2 24.8C251.3 21.7 228.7 21.3 205.8 20.8C183 20.3 160 19.7 137.2 21.3C114.3 23 91.7 27 68.8 29.7C46 32.3 23 33.7 11.5 34.3L0 35Z" fill="#7dbeea"></path><path d="M0 61L11.5 59.5C23 58 46 55 68.8 51.8C91.7 48.7 114.3 45.3 137.2 44.5C160 43.7 183 45.3 205.8 44.5C228.7 43.7 251.3 40.3 274.2 42.2C297 44 320 51 342.8 53C365.7 55 388.3 52 411.2 48.8C434 45.7 457 42.3 480 42.2C503 42 526 45 548.8 43.2C571.7 41.3 594.3 34.7 617.2 34.5C640 34.3 663 40.7 685.8 44.3C708.7 48 731.3 49 754.2 48.2C777 47.3 800 44.7 822.8 44.3C845.7 44 868.3 46 891.2 43C914 40 937 32 948.5 28L960 24L960 13L948.5 17.7C937 22.3 914 31.7 891.2 34.8C868.3 38 845.7 35 822.8 34.5C800 34 777 36 754.2 35.8C731.3 35.7 708.7 33.3 685.8 30.2C663 27 640 23 617.2 24.8C594.3 26.7 571.7 34.3 548.8 35.7C526 37 503 32 480 31.2C457 30.3 434 33.7 411.2 37C388.3 40.3 365.7 43.7 342.8 42.7C320 41.7 297 36.3 274.2 35.5C251.3 34.7 228.7 38.3 205.8 39.3C183 40.3 160 38.7 137.2 38.3C114.3 38 91.7 39 68.8 41.5C46 44 23 48 11.5 50L0 52Z" fill="#6eb7eb"></path><path d="M0 85L11.5 83.7C23 82.3 46 79.7 68.8 76.2C91.7 72.7 114.3 68.3 137.2 65.5C160 62.7 183 61.3 205.8 60C228.7 58.7 251.3 57.3 274.2 57.7C297 58 320 60 342.8 63.3C365.7 66.7 388.3 71.3 411.2 72.5C434 73.7 457 71.3 480 71.2C503 71 526 73 548.8 74C571.7 75 594.3 75 617.2 70.8C640 66.7 663 58.3 685.8 58.7C708.7 59 731.3 68 754.2 68.8C777 69.7 800 62.3 822.8 61.2C845.7 60 868.3 65 891.2 67.3C914 69.7 937 69.3 948.5 69.2L960 69L960 22L948.5 26C937 30 914 38 891.2 41C868.3 44 845.7 42 822.8 42.3C800 42.7 777 45.3 754.2 46.2C731.3 47 708.7 46 685.8 42.3C663 38.7 640 32.3 617.2 32.5C594.3 32.7 571.7 39.3 548.8 41.2C526 43 503 40 480 40.2C457 40.3 434 43.7 411.2 46.8C388.3 50 365.7 53 342.8 51C320 49 297 42 274.2 40.2C251.3 38.3 228.7 41.7 205.8 42.5C183 43.3 160 41.7 137.2 42.5C114.3 43.3 91.7 46.7 68.8 49.8C46 53 23 56 11.5 57.5L0 59Z" fill="#5eb1ec"></path><path d="M0 88L11.5 87.5C23 87 46 86 68.8 85.5C91.7 85 114.3 85 137.2 84C160 83 183 81 205.8 80.8C228.7 80.7 251.3 82.3 274.2 84.2C297 86 320 88 342.8 87.5C365.7 87 388.3 84 411.2 81.2C434 78.3 457 75.7 480 77C503 78.3 526 83.7 548.8 85.7C571.7 87.7 594.3 86.3 617.2 83.5C640 80.7 663 76.3 685.8 77C708.7 77.7 731.3 83.3 754.2 84.3C777 85.3 800 81.7 822.8 81C845.7 80.3 868.3 82.7 891.2 83.8C914 85 937 85 948.5 85L960 85L960 67L948.5 67.2C937 67.3 914 67.7 891.2 65.3C868.3 63 845.7 58 822.8 59.2C800 60.3 777 67.7 754.2 66.8C731.3 66 708.7 57 685.8 56.7C663 56.3 640 64.7 617.2 68.8C594.3 73 571.7 73 548.8 72C526 71 503 69 480 69.2C457 69.3 434 71.7 411.2 70.5C388.3 69.3 365.7 64.7 342.8 61.3C320 58 297 56 274.2 55.7C251.3 55.3 228.7 56.7 205.8 58C183 59.3 160 60.7 137.2 63.5C114.3 66.3 91.7 70.7 68.8 74.2C46 77.7 23 80.3 11.5 81.7L0 83Z" fill="#4daaed"></path><path d="M0 88L11.5 89.3C23 90.7 46 93.3 68.8 93.8C91.7 94.3 114.3 92.7 137.2 91.2C160 89.7 183 88.3 205.8 89.5C228.7 90.7 251.3 94.3 274.2 95.2C297 96 320 94 342.8 92.3C365.7 90.7 388.3 89.3 411.2 88C434 86.7 457 85.3 480 87C503 88.7 526 93.3 548.8 93.5C571.7 93.7 594.3 89.3 617.2 87.3C640 85.3 663 85.7 685.8 87.3C708.7 89 731.3 92 754.2 92.5C777 93 800 91 822.8 91.7C845.7 92.3 868.3 95.7 891.2 96C914 96.3 937 93.7 948.5 92.3L960 91L960 83L948.5 83C937 83 914 83 891.2 81.8C868.3 80.7 845.7 78.3 822.8 79C800 79.7 777 83.3 754.2 82.3C731.3 81.3 708.7 75.7 685.8 75C663 74.3 640 78.7 617.2 81.5C594.3 84.3 571.7 85.7 548.8 83.7C526 81.7 503 76.3 480 75C457 73.7 434 76.3 411.2 79.2C388.3 82 365.7 85 342.8 85.5C320 86 297 84 274.2 82.2C251.3 80.3 228.7 78.7 205.8 78.8C183 79 160 81 137.2 82C114.3 83 91.7 83 68.8 83.5C46 84 23 85 11.5 85.5L0 86Z" fill="#3aa3ed"></path><path d="M0 101L11.5 101C23 101 46 101 68.8 101C91.7 101 114.3 101 137.2 101C160 101 183 101 205.8 101C228.7 101 251.3 101 274.2 101C297 101 320 101 342.8 101C365.7 101 388.3 101 411.2 101C434 101 457 101 480 101C503 101 526 101 548.8 101C571.7 101 594.3 101 617.2 101C640 101 663 101 685.8 101C708.7 101 731.3 101 754.2 101C777 101 800 101 822.8 101C845.7 101 868.3 101 891.2 101C914 101 937 101 948.5 101L960 101L960 89L948.5 90.3C937 91.7 914 94.3 891.2 94C868.3 93.7 845.7 90.3 822.8 89.7C800 89 777 91 754.2 90.5C731.3 90 708.7 87 685.8 85.3C663 83.7 640 83.3 617.2 85.3C594.3 87.3 571.7 91.7 548.8 91.5C526 91.3 503 86.7 480 85C457 83.3 434 84.7 411.2 86C388.3 87.3 365.7 88.7 342.8 90.3C320 92 297 94 274.2 93.2C251.3 92.3 228.7 88.7 205.8 87.5C183 86.3 160 87.7 137.2 89.2C114.3 90.7 91.7 92.3 68.8 91.8C46 91.3 23 88.7 11.5 87.3L0 86Z" fill="#209cee"></path></svg>